<svg width="549" height="96" viewBox="0 0 549 96" fill="none" xmlns="http://www.w3.org/2000/svg">
    <rect x="1.5" y="1.5" width="546" height="93" rx="18.5" fill="#131313" stroke="#00C885" stroke-width="3"/>
    <g filter="url(#filter0_d_0_1)">
        <path d="M43.6287 59.9904C48.6601 59.9904 52.1773 57.4514 54.1806 52.3735L61.448 55.1687C59.8641 59.0353 57.5581 61.9004 54.53 63.7639C51.5018 65.6273 47.8681 66.559 43.6287 66.559C37.1998 66.559 32.2384 64.7422 28.7444 61.1084C25.2504 57.4747 23.5034 52.3968 23.5034 45.8747C23.5034 39.306 25.1806 34.2747 28.5348 30.7807C31.9356 27.2402 36.8504 25.4699 43.2793 25.4699C47.9846 25.4699 51.8047 26.4249 54.7396 28.3349C57.6745 30.1984 59.7243 32.947 60.889 36.5807L53.5516 38.6072C52.946 36.604 51.7115 35.0201 49.848 33.8554C48.0312 32.6442 45.8882 32.0386 43.4191 32.0386C39.6456 32.0386 36.7806 33.2265 34.8239 35.6024C32.8673 37.9317 31.889 41.3558 31.889 45.8747C31.889 50.4402 32.8906 53.9341 34.8938 56.3566C36.9436 58.7791 39.8553 59.9904 43.6287 59.9904ZM72.9358 66.559C69.9543 66.559 67.625 65.7671 65.9479 64.1831C64.3173 62.5526 63.5021 60.2699 63.5021 57.3349C63.5021 54.1671 64.527 51.7679 66.5768 50.1373C68.6732 48.4602 71.678 47.5984 75.5912 47.5518L82.2298 47.412V45.8747C82.2298 43.8715 81.8804 42.3807 81.1816 41.4024C80.4828 40.4241 79.3414 39.9349 77.7575 39.9349C76.2667 39.9349 75.172 40.2843 74.4732 40.9831C73.8209 41.6353 73.4017 42.7301 73.2153 44.2675L64.8997 43.8482C65.4121 40.8667 66.7631 38.6072 68.9527 37.0699C71.1888 35.5325 74.2402 34.7639 78.1069 34.7639C81.9736 34.7639 84.9551 35.7189 87.0515 37.6289C89.1479 39.539 90.196 42.2643 90.196 45.8048V56.9157C90.196 58.6394 90.3824 59.8273 90.7551 60.4795C91.1278 61.1317 91.78 61.4578 92.7117 61.4578C93.3173 61.4578 93.8997 61.4112 94.4587 61.3181V65.5807C93.9928 65.6739 93.5736 65.7904 93.2009 65.9301C92.8282 66.0233 92.4322 66.0932 92.0129 66.1398C91.6402 66.1863 91.2442 66.2329 90.825 66.2795C90.4057 66.3261 89.9165 66.3494 89.3575 66.3494C87.3543 66.3494 85.8635 65.8602 84.8852 64.8819C83.9535 63.9036 83.3944 62.4594 83.2081 60.5494H83.0683C80.7856 64.5558 77.4081 66.559 72.9358 66.559ZM82.2298 51.8145L78.1069 51.8843C76.2434 51.9775 74.9157 52.1871 74.1238 52.5133C73.3784 52.8394 72.796 53.3518 72.3768 54.0506C72.0041 54.7028 71.8177 55.588 71.8177 56.706C71.8177 58.1502 72.1438 59.245 72.796 59.9904C73.4948 60.6892 74.4033 61.0386 75.5213 61.0386C76.7792 61.0386 77.9205 60.6892 78.9454 59.9904C79.9703 59.2916 80.7623 58.3598 81.3213 57.1952C81.927 55.9839 82.2298 54.7028 82.2298 53.3518V51.8145ZM114.975 66V48.8096C114.975 43.4056 113.438 40.7036 110.363 40.7036C108.779 40.7036 107.475 41.5422 106.45 43.2193C105.425 44.8498 104.913 46.9695 104.913 49.5783V66H96.9465V42.241C96.9465 40.6104 96.9232 39.2594 96.8766 38.188C96.83 37.1165 96.7834 36.1614 96.7369 35.3229H104.284C104.33 35.6956 104.4 36.6739 104.493 38.2578C104.633 39.7952 104.703 40.8667 104.703 41.4723H104.773C105.751 39.143 106.963 37.4426 108.407 36.3711C109.897 35.2996 111.668 34.7639 113.718 34.7639C118.423 34.7639 121.265 37 122.243 41.4723H122.383C123.408 39.0964 124.642 37.396 126.086 36.3711C127.577 35.2996 129.44 34.7639 131.677 34.7639C134.658 34.7639 136.941 35.7888 138.525 37.8386C140.109 39.8418 140.901 42.7534 140.901 46.5735V66H132.934V48.8096C132.934 43.4056 131.397 40.7036 128.322 40.7036C126.785 40.7036 125.504 41.4723 124.479 43.0096C123.501 44.5004 122.965 46.5735 122.872 49.2289V66H114.975ZM176.329 50.5566C176.329 55.6811 175.305 59.641 173.255 62.4361C171.205 65.1847 168.317 66.559 164.59 66.559C162.447 66.559 160.56 66.0932 158.929 65.1614C157.346 64.2297 156.134 62.8787 155.296 61.1084H155.086C155.179 61.6675 155.249 63.3912 155.296 66.2795V78.0193H147.329V42.3807C147.329 39.4924 147.26 37.1398 147.12 35.3229H154.807C154.9 35.649 154.97 36.3245 155.016 37.3494C155.109 38.3743 155.156 39.3759 155.156 40.3542H155.296C157.113 36.5807 160.374 34.694 165.079 34.694C168.666 34.694 171.438 36.0683 173.395 38.8169C175.351 41.5655 176.329 45.4787 176.329 50.5566ZM168.014 50.5566C168.014 43.6618 165.917 40.2145 161.725 40.2145C159.628 40.2145 157.998 41.1462 156.833 43.0096C155.715 44.8731 155.156 47.4586 155.156 50.7663C155.156 54.0739 155.715 56.6361 156.833 58.453C157.951 60.2233 159.558 61.1084 161.655 61.1084C165.894 61.155 168.014 57.6378 168.014 50.5566ZM188.99 35.3229V52.5133C188.99 57.9173 190.807 60.6193 194.441 60.6193C196.351 60.6193 197.888 59.804 199.053 58.1735C200.264 56.4964 200.87 54.3767 200.87 51.8145V35.3229H208.836V59.1518C208.836 61.7606 208.906 64.0434 209.046 66H201.499C201.266 63.298 201.149 61.2715 201.149 59.9205H201.01C199.938 62.2498 198.587 63.9502 196.957 65.0217C195.326 66.0466 193.393 66.559 191.157 66.559C187.896 66.559 185.38 65.5807 183.61 63.6241C181.886 61.6209 181.024 58.6859 181.024 54.8193V35.3229H188.99ZM241.552 57.0554C241.552 60.0369 240.318 62.3663 237.849 64.0434C235.426 65.7205 232.072 66.559 227.786 66.559C223.593 66.559 220.379 65.9068 218.143 64.6024C215.907 63.2514 214.416 61.1783 213.67 58.3831L220.658 57.3349C221.078 58.7791 221.776 59.804 222.755 60.4096C223.733 61.0153 225.41 61.3181 227.786 61.3181C230.022 61.3181 231.653 61.0386 232.678 60.4795C233.703 59.8739 234.215 58.9655 234.215 57.7542C234.215 56.7759 233.796 56.0072 232.957 55.4482C232.165 54.8892 230.791 54.4 228.834 53.9807C224.362 53.0956 221.334 52.2803 219.75 51.5349C218.166 50.743 216.955 49.7414 216.116 48.5301C215.324 47.3189 214.928 45.8281 214.928 44.0578C214.928 41.1229 216.046 38.8402 218.283 37.2096C220.519 35.5791 223.71 34.7639 227.856 34.7639C231.49 34.7639 234.425 35.4859 236.661 36.9301C238.897 38.3277 240.271 40.3542 240.784 43.0096L233.796 43.7783C233.563 42.5205 233.004 41.5888 232.119 40.9831C231.234 40.3775 229.813 40.0747 227.856 40.0747C225.946 40.0747 224.525 40.3076 223.593 40.7735C222.662 41.2394 222.196 42.0546 222.196 43.2193C222.196 44.1044 222.545 44.8032 223.244 45.3157C223.989 45.8281 225.224 46.2474 226.948 46.5735C229.323 47.0859 231.443 47.5984 233.307 48.1108C235.217 48.6233 236.731 49.2522 237.849 49.9976C238.967 50.6964 239.852 51.6048 240.504 52.7229C241.203 53.841 241.552 55.2851 241.552 57.0554Z" fill="#00C885"/>
    </g>
    <g filter="url(#filter1_d_0_1)">
        <path d="M413.652 66V26.0988H421.968V59.5711H443.351V66H413.652ZM447.976 29.8024V24.0024H455.942V29.8024H447.976ZM447.976 66V35.3229H455.942V66H447.976ZM482.748 66V48.8096C482.748 43.4056 480.931 40.7036 477.297 40.7036C475.387 40.7036 473.826 41.5422 472.615 43.2193C471.45 44.8498 470.868 46.9695 470.868 49.5783V66H462.902V42.241C462.902 40.6104 462.878 39.2594 462.832 38.188C462.785 37.1165 462.739 36.1614 462.692 35.3229H470.239C470.286 35.6956 470.356 36.6739 470.449 38.2578C470.588 39.7952 470.658 40.8667 470.658 41.4723H470.728C471.8 39.143 473.151 37.4426 474.781 36.3711C476.412 35.2996 478.345 34.7639 480.581 34.7639C483.842 34.7639 486.335 35.7655 488.058 37.7687C489.829 39.7719 490.714 42.7068 490.714 46.5735V66H482.748ZM516.652 66L508.476 52.094L505.052 54.4699V66H497.085V24.0024H505.052V48.041L515.953 35.3229H524.548L513.787 47.3422L525.317 66H516.652Z" fill="#00C885"/>
    </g>
    <g filter="url(#filter2_d_0_1)">
        <mask id="path-4-inside-1_0_1" fill="white">
            <path fill-rule="evenodd" clip-rule="evenodd" d="M345.167 43H308.833C309.256 43.9473 309.573 44.9523 309.769 46H344.231C344.427 44.9523 344.744 43.9473 345.167 43ZM344.082 50H309.918C309.803 51.0402 309.569 52.0448 309.232 53H344.768C344.431 52.0448 344.197 51.0402 344.082 50Z"/>
        </mask>
        <path fill-rule="evenodd" clip-rule="evenodd" d="M345.167 43H308.833C309.256 43.9473 309.573 44.9523 309.769 46H344.231C344.427 44.9523 344.744 43.9473 345.167 43ZM344.082 50H309.918C309.803 51.0402 309.569 52.0448 309.232 53H344.768C344.431 52.0448 344.197 51.0402 344.082 50Z" fill="#00C885"/>
        <path d="M345.167 43L346.081 43.4078L346.709 42H345.167V43ZM308.833 43V42H307.291L307.919 43.4078L308.833 43ZM309.769 46L308.786 46.184L308.939 47H309.769V46ZM344.231 46V47H345.061L345.214 46.184L344.231 46ZM344.082 50L345.076 49.8901L344.978 49H344.082V50ZM309.918 50V49H309.022L308.924 49.8901L309.918 50ZM309.232 53L308.289 52.6668L307.818 54H309.232V53ZM344.768 53V54H346.182L345.711 52.6668L344.768 53ZM345.167 42H308.833V44H345.167V42ZM307.919 43.4078C308.311 44.2845 308.605 45.2145 308.786 46.184L310.752 45.816C310.541 44.6902 310.2 43.6101 309.746 42.5922L307.919 43.4078ZM309.769 47H344.231V45H309.769V47ZM345.214 46.184C345.395 45.2145 345.689 44.2845 346.081 43.4078L344.254 42.5922C343.8 43.6101 343.459 44.6902 343.248 45.816L345.214 46.184ZM344.082 49H309.918V51H344.082V49ZM308.924 49.8901C308.817 50.8533 308.601 51.783 308.289 52.6668L310.175 53.3332C310.538 52.3066 310.788 51.2271 310.912 50.1099L308.924 49.8901ZM309.232 54H344.768V52H309.232V54ZM345.711 52.6668C345.399 51.783 345.183 50.8533 345.076 49.8901L343.088 50.1099C343.212 51.2271 343.462 52.3066 343.825 53.3332L345.711 52.6668Z" fill="#00C885" mask="url(#path-4-inside-1_0_1)"/>
    </g>
    <g filter="url(#filter3_d_0_1)">
        <path fill-rule="evenodd" clip-rule="evenodd" d="M271.5 39H296.5C301.747 39 306 43.2533 306 48.5C306 48.6677 305.996 48.8344 305.987 49H308.99C308.997 48.8341 309 48.6675 309 48.5C309 41.5964 303.404 36 296.5 36H271.5C264.596 36 259 41.5964 259 48.5C259 55.4036 264.596 61 271.5 61H296.5C301.43 61 305.693 58.146 307.728 54H304.247C302.525 56.4208 299.697 58 296.5 58H271.5C266.253 58 262 53.7467 262 48.5C262 43.2533 266.253 39 271.5 39Z" fill="#00C885"/>
    </g>
    <g filter="url(#filter4_d_0_1)">
        <path fill-rule="evenodd" clip-rule="evenodd" d="M357.5 39H382.5C387.747 39 392 43.2533 392 48.5C392 53.7467 387.747 58 382.5 58H357.5C354.303 58 351.475 56.4208 349.753 54H346.272C348.307 58.146 352.57 61 357.5 61H382.5C389.404 61 395 55.4036 395 48.5C395 41.5964 389.404 36 382.5 36H357.5C350.596 36 345 41.5964 345 48.5C345 48.6675 345.003 48.8341 345.01 49H348.013C348.004 48.8344 348 48.6677 348 48.5C348 43.2533 352.253 39 357.5 39Z" fill="#00C885"/>
    </g>
    <g filter="url(#filter5_d_0_1)">
        <mask id="path-8-inside-2_0_1" fill="white">
            <path fill-rule="evenodd" clip-rule="evenodd" d="M350.199 52.8553C352.381 52.3182 354 50.3481 354 48C354 45.8584 352.654 44.0313 350.761 43.319C350.143 44.1222 349.665 45.0391 349.364 46.033C350.295 46.204 351 47.0196 351 48C351 49.0605 350.175 49.9282 349.131 49.9958C349.314 51.0249 349.682 51.9899 350.199 52.8553Z"/>
        </mask>
        <path fill-rule="evenodd" clip-rule="evenodd" d="M350.199 52.8553C352.381 52.3182 354 50.3481 354 48C354 45.8584 352.654 44.0313 350.761 43.319C350.143 44.1222 349.665 45.0391 349.364 46.033C350.295 46.204 351 47.0196 351 48C351 49.0605 350.175 49.9282 349.131 49.9958C349.314 51.0249 349.682 51.9899 350.199 52.8553Z" fill="#00C885"/>
        <path d="M350.199 52.8553L349.341 53.3685L349.72 54.0031L350.438 53.8263L350.199 52.8553ZM350.761 43.319L351.113 42.3831L350.42 42.1223L349.969 42.7089L350.761 43.319ZM349.364 46.033L348.407 45.7432L348.082 46.8144L349.183 47.0165L349.364 46.033ZM349.131 49.9958L349.067 48.9979L347.951 49.0701L348.147 50.1706L349.131 49.9958ZM350.438 53.8263C353.057 53.1818 355 50.8191 355 48H353C353 49.8772 351.706 51.4546 349.96 51.8843L350.438 53.8263ZM355 48C355 45.4285 353.383 43.2373 351.113 42.3831L350.409 44.2549C351.924 44.8253 353 46.2883 353 48H355ZM350.321 46.3228C350.586 45.447 351.007 44.6382 351.553 43.929L349.969 42.7089C349.278 43.6062 348.743 44.6313 348.407 45.7432L350.321 46.3228ZM352 48C352 46.5283 350.941 45.306 349.544 45.0494L349.183 47.0165C349.648 47.1019 350 47.5109 350 48H352ZM349.196 50.9937C350.762 50.8923 352 49.5912 352 48H350C350 48.5299 349.587 48.9642 349.067 48.9979L349.196 50.9937ZM351.057 52.3422C350.601 51.5788 350.277 50.7281 350.116 49.821L348.147 50.1706C348.351 51.3216 348.762 52.4011 349.341 53.3685L351.057 52.3422Z" fill="#00C885" mask="url(#path-8-inside-2_0_1)"/>
    </g>
    <g filter="url(#filter6_d_0_1)">
        <mask id="path-10-inside-3_0_1" fill="white">
            <path fill-rule="evenodd" clip-rule="evenodd" d="M303.801 52.8553C301.619 52.3182 300 50.3481 300 48C300 45.8584 301.346 44.0313 303.239 43.319C303.857 44.1222 304.335 45.0391 304.636 46.033C303.705 46.204 303 47.0196 303 48C303 49.0605 303.825 49.9282 304.869 49.9958C304.686 51.0249 304.318 51.9899 303.801 52.8553Z"/>
        </mask>
        <path fill-rule="evenodd" clip-rule="evenodd" d="M303.801 52.8553C301.619 52.3182 300 50.3481 300 48C300 45.8584 301.346 44.0313 303.239 43.319C303.857 44.1222 304.335 45.0391 304.636 46.033C303.705 46.204 303 47.0196 303 48C303 49.0605 303.825 49.9282 304.869 49.9958C304.686 51.0249 304.318 51.9899 303.801 52.8553Z" fill="#00C885"/>
        <path d="M303.801 52.8553L304.659 53.3685L304.28 54.0031L303.562 53.8264L303.801 52.8553ZM303.239 43.319L302.887 42.3831L303.58 42.1223L304.031 42.7089L303.239 43.319ZM304.636 46.033L305.593 45.7432L305.918 46.8144L304.817 47.0165L304.636 46.033ZM304.869 49.9958L304.933 48.9979L306.049 49.0701L305.853 50.1706L304.869 49.9958ZM303.562 53.8264C300.943 53.1818 299 50.8191 299 48H301C301 49.8772 302.294 51.4546 304.04 51.8843L303.562 53.8264ZM299 48C299 45.4285 300.617 43.2373 302.887 42.3831L303.591 44.2549C302.076 44.8253 301 46.2883 301 48H299ZM303.679 46.3228C303.414 45.447 302.993 44.6382 302.447 43.929L304.031 42.7089C304.722 43.6062 305.257 44.6313 305.593 45.7432L303.679 46.3228ZM302 48C302 46.5283 303.059 45.306 304.456 45.0494L304.817 47.0165C304.352 47.1019 304 47.5109 304 48H302ZM304.804 50.9937C303.238 50.8923 302 49.5912 302 48H304C304 48.5299 304.413 48.9642 304.933 48.9979L304.804 50.9937ZM302.943 52.3422C303.399 51.5788 303.723 50.7281 303.884 49.821L305.853 50.1706C305.649 51.3216 305.238 52.4011 304.659 53.3685L302.943 52.3422Z" fill="#00C885" mask="url(#path-10-inside-3_0_1)"/>
    </g>
    <g filter="url(#filter7_d_0_1)">
        <mask id="path-12-inside-4_0_1" fill="white">
            <path fill-rule="evenodd" clip-rule="evenodd" d="M349 50H343V53H349C350.443 53 351.742 52.3891 352.655 51.412V50H349Z"/>
        </mask>
        <path fill-rule="evenodd" clip-rule="evenodd" d="M349 50H343V53H349C350.443 53 351.742 52.3891 352.655 51.412V50H349Z" fill="#00C885"/>
        <path d="M343 50V49H342V50H343ZM343 53H342V54H343V53ZM352.655 51.412L353.386 52.0945L353.655 51.8063V51.412H352.655ZM352.655 50H353.655V49H352.655V50ZM343 51H349V49H343V51ZM344 53V50H342V53H344ZM349 52H343V54H349V52ZM349 54C350.731 54 352.292 53.2657 353.386 52.0945L351.924 50.7294C351.193 51.5126 350.154 52 349 52V54ZM351.655 50V51.412H353.655V50H351.655ZM349 51H352.655V49H349V51Z" fill="#00C885" mask="url(#path-12-inside-4_0_1)"/>
    </g>
    <g filter="url(#filter8_d_0_1)">
        <mask id="path-14-inside-5_0_1" fill="white">
            <path fill-rule="evenodd" clip-rule="evenodd" d="M305 50H311V53H305C303.557 53 302.258 52.3891 301.345 51.412V50H305Z"/>
        </mask>
        <path fill-rule="evenodd" clip-rule="evenodd" d="M305 50H311V53H305C303.557 53 302.258 52.3891 301.345 51.412V50H305Z" fill="#00C885"/>
        <path d="M311 50V49H312V50H311ZM311 53H312V54H311V53ZM301.345 51.412L300.614 52.0945L300.345 51.8063V51.412H301.345ZM301.345 50H300.345V49H301.345V50ZM311 51H305V49H311V51ZM310 53V50H312V53H310ZM305 52H311V54H305V52ZM305 54C303.269 54 301.708 53.2657 300.614 52.0945L302.076 50.7294C302.807 51.5126 303.846 52 305 52V54ZM302.345 50V51.412H300.345V50H302.345ZM305 51H301.345V49H305V51Z" fill="#00C885" mask="url(#path-14-inside-5_0_1)"/>
    </g>
    <defs>
        <filter id="filter0_d_0_1" x="19.5034" y="25.4698" width="226.049" height="60.5494" filterUnits="userSpaceOnUse" color-interpolation-filters="sRGB">
            <feFlood flood-opacity="0" result="BackgroundImageFix"/>
            <feColorMatrix in="SourceAlpha" type="matrix" values="0 0 0 0 0 0 0 0 0 0 0 0 0 0 0 0 0 0 127 0" result="hardAlpha"/>
            <feOffset dy="4"/>
            <feGaussianBlur stdDeviation="2"/>
            <feComposite in2="hardAlpha" operator="out"/>
            <feColorMatrix type="matrix" values="0 0 0 0 0 0 0 0 0 0 0 0 0 0 0 0 0 0 0.5 0"/>
            <feBlend mode="normal" in2="BackgroundImageFix" result="effect1_dropShadow_0_1"/>
            <feBlend mode="normal" in="SourceGraphic" in2="effect1_dropShadow_0_1" result="shape"/>
        </filter>
        <filter id="filter1_d_0_1" x="409.652" y="24.0024" width="119.664" height="49.9976" filterUnits="userSpaceOnUse" color-interpolation-filters="sRGB">
            <feFlood flood-opacity="0" result="BackgroundImageFix"/>
            <feColorMatrix in="SourceAlpha" type="matrix" values="0 0 0 0 0 0 0 0 0 0 0 0 0 0 0 0 0 0 127 0" result="hardAlpha"/>
            <feOffset dy="4"/>
            <feGaussianBlur stdDeviation="2"/>
            <feComposite in2="hardAlpha" operator="out"/>
            <feColorMatrix type="matrix" values="0 0 0 0 0 0 0 0 0 0 0 0 0 0 0 0 0 0 0.5 0"/>
            <feBlend mode="normal" in2="BackgroundImageFix" result="effect1_dropShadow_0_1"/>
            <feBlend mode="normal" in="SourceGraphic" in2="effect1_dropShadow_0_1" result="shape"/>
        </filter>
        <filter id="filter2_d_0_1" x="304.833" y="43" width="44.335" height="18" filterUnits="userSpaceOnUse" color-interpolation-filters="sRGB">
            <feFlood flood-opacity="0" result="BackgroundImageFix"/>
            <feColorMatrix in="SourceAlpha" type="matrix" values="0 0 0 0 0 0 0 0 0 0 0 0 0 0 0 0 0 0 127 0" result="hardAlpha"/>
            <feOffset dy="4"/>
            <feGaussianBlur stdDeviation="2"/>
            <feComposite in2="hardAlpha" operator="out"/>
            <feColorMatrix type="matrix" values="0 0 0 0 0 0 0 0 0 0 0 0 0 0 0 0 0 0 0.5 0"/>
            <feBlend mode="normal" in2="BackgroundImageFix" result="effect1_dropShadow_0_1"/>
            <feBlend mode="normal" in="SourceGraphic" in2="effect1_dropShadow_0_1" result="shape"/>
        </filter>
        <filter id="filter3_d_0_1" x="255" y="36" width="58" height="33" filterUnits="userSpaceOnUse" color-interpolation-filters="sRGB">
            <feFlood flood-opacity="0" result="BackgroundImageFix"/>
            <feColorMatrix in="SourceAlpha" type="matrix" values="0 0 0 0 0 0 0 0 0 0 0 0 0 0 0 0 0 0 127 0" result="hardAlpha"/>
            <feOffset dy="4"/>
            <feGaussianBlur stdDeviation="2"/>
            <feComposite in2="hardAlpha" operator="out"/>
            <feColorMatrix type="matrix" values="0 0 0 0 0 0 0 0 0 0 0 0 0 0 0 0 0 0 0.5 0"/>
            <feBlend mode="normal" in2="BackgroundImageFix" result="effect1_dropShadow_0_1"/>
            <feBlend mode="normal" in="SourceGraphic" in2="effect1_dropShadow_0_1" result="shape"/>
        </filter>
        <filter id="filter4_d_0_1" x="341" y="36" width="58" height="33" filterUnits="userSpaceOnUse" color-interpolation-filters="sRGB">
            <feFlood flood-opacity="0" result="BackgroundImageFix"/>
            <feColorMatrix in="SourceAlpha" type="matrix" values="0 0 0 0 0 0 0 0 0 0 0 0 0 0 0 0 0 0 127 0" result="hardAlpha"/>
            <feOffset dy="4"/>
            <feGaussianBlur stdDeviation="2"/>
            <feComposite in2="hardAlpha" operator="out"/>
            <feColorMatrix type="matrix" values="0 0 0 0 0 0 0 0 0 0 0 0 0 0 0 0 0 0 0.5 0"/>
            <feBlend mode="normal" in2="BackgroundImageFix" result="effect1_dropShadow_0_1"/>
            <feBlend mode="normal" in="SourceGraphic" in2="effect1_dropShadow_0_1" result="shape"/>
        </filter>
        <filter id="filter5_d_0_1" x="345.131" y="43.319" width="12.8688" height="17.5364" filterUnits="userSpaceOnUse" color-interpolation-filters="sRGB">
            <feFlood flood-opacity="0" result="BackgroundImageFix"/>
            <feColorMatrix in="SourceAlpha" type="matrix" values="0 0 0 0 0 0 0 0 0 0 0 0 0 0 0 0 0 0 127 0" result="hardAlpha"/>
            <feOffset dy="4"/>
            <feGaussianBlur stdDeviation="2"/>
            <feComposite in2="hardAlpha" operator="out"/>
            <feColorMatrix type="matrix" values="0 0 0 0 0 0 0 0 0 0 0 0 0 0 0 0 0 0 0.5 0"/>
            <feBlend mode="normal" in2="BackgroundImageFix" result="effect1_dropShadow_0_1"/>
            <feBlend mode="normal" in="SourceGraphic" in2="effect1_dropShadow_0_1" result="shape"/>
        </filter>
        <filter id="filter6_d_0_1" x="296" y="43.319" width="12.8688" height="17.5364" filterUnits="userSpaceOnUse" color-interpolation-filters="sRGB">
            <feFlood flood-opacity="0" result="BackgroundImageFix"/>
            <feColorMatrix in="SourceAlpha" type="matrix" values="0 0 0 0 0 0 0 0 0 0 0 0 0 0 0 0 0 0 127 0" result="hardAlpha"/>
            <feOffset dy="4"/>
            <feGaussianBlur stdDeviation="2"/>
            <feComposite in2="hardAlpha" operator="out"/>
            <feColorMatrix type="matrix" values="0 0 0 0 0 0 0 0 0 0 0 0 0 0 0 0 0 0 0.5 0"/>
            <feBlend mode="normal" in2="BackgroundImageFix" result="effect1_dropShadow_0_1"/>
            <feBlend mode="normal" in="SourceGraphic" in2="effect1_dropShadow_0_1" result="shape"/>
        </filter>
        <filter id="filter7_d_0_1" x="339" y="50" width="17.655" height="11" filterUnits="userSpaceOnUse" color-interpolation-filters="sRGB">
            <feFlood flood-opacity="0" result="BackgroundImageFix"/>
            <feColorMatrix in="SourceAlpha" type="matrix" values="0 0 0 0 0 0 0 0 0 0 0 0 0 0 0 0 0 0 127 0" result="hardAlpha"/>
            <feOffset dy="4"/>
            <feGaussianBlur stdDeviation="2"/>
            <feComposite in2="hardAlpha" operator="out"/>
            <feColorMatrix type="matrix" values="0 0 0 0 0 0 0 0 0 0 0 0 0 0 0 0 0 0 0.5 0"/>
            <feBlend mode="normal" in2="BackgroundImageFix" result="effect1_dropShadow_0_1"/>
            <feBlend mode="normal" in="SourceGraphic" in2="effect1_dropShadow_0_1" result="shape"/>
        </filter>
        <filter id="filter8_d_0_1" x="297.345" y="50" width="17.6549" height="11" filterUnits="userSpaceOnUse" color-interpolation-filters="sRGB">
            <feFlood flood-opacity="0" result="BackgroundImageFix"/>
            <feColorMatrix in="SourceAlpha" type="matrix" values="0 0 0 0 0 0 0 0 0 0 0 0 0 0 0 0 0 0 127 0" result="hardAlpha"/>
            <feOffset dy="4"/>
            <feGaussianBlur stdDeviation="2"/>
            <feComposite in2="hardAlpha" operator="out"/>
            <feColorMatrix type="matrix" values="0 0 0 0 0 0 0 0 0 0 0 0 0 0 0 0 0 0 0.5 0"/>
            <feBlend mode="normal" in2="BackgroundImageFix" result="effect1_dropShadow_0_1"/>
            <feBlend mode="normal" in="SourceGraphic" in2="effect1_dropShadow_0_1" result="shape"/>
        </filter>
    </defs>
</svg>
